<?xml version="1.0" encoding="UTF-8"?>
<!DOCTYPE svg PUBLIC "-//W3C//DTD SVG 1.0//EN" "http://www.w3.org/TR/2001/REC-SVG-20010904/DTD/svg10.dtd">
<!-- Creator: CorelDRAW X8 -->
<svg xmlns="http://www.w3.org/2000/svg" xml:space="preserve" width="420px" height="53px" version="1.0" style="shape-rendering:geometricPrecision; text-rendering:geometricPrecision; image-rendering:optimizeQuality; fill-rule:evenodd; clip-rule:evenodd"
viewBox="0 0 33043 4172"
 xmlns:xlink="http://www.w3.org/1999/xlink">
 <defs>
  <style type="text/css">
   <![CDATA[
    .fil0 {fill:black}
    .fil1 {fill:#ED3237}
    .fil2 {fill:#FAA831}
    .fil3 {fill:black;fill-rule:nonzero}
    .fil4 {fill:#B5090E;fill-rule:nonzero}
   ]]>
  </style>
 </defs>
 <g id="Layer_x0020_1">
  <metadata id="CorelCorpID_0Corel-Layer"/>
  <g id="_2196993996128">
   <g>
    <path class="fil0" d="M560 4148c-9,-8 -22,-18 -25,-28 2,-87 4,-174 8,-261 -4,-72 -7,-143 -10,-213 8,-10 17,-19 26,-28 93,0 187,1 280,3 73,6 160,32 182,109 -1,11 -1,22 -1,34 -14,60 -72,84 -128,98 0,0 0,1 0,2 49,9 99,28 134,63 6,9 11,19 18,28 2,9 4,19 7,29 0,11 0,21 1,32 -12,98 -118,114 -199,130 -97,0 -195,1 -293,2zm557 24c-17,-25 -34,-49 -52,-73 82,-114 163,-228 246,-341 -18,-24 -36,-48 -53,-71 28,-21 137,-97 149,-91 53,81 107,164 161,246 57,77 115,155 172,233 -52,31 -103,63 -154,96 -74,-112 -147,-224 -220,-336 -31,39 -63,78 -93,117 -52,73 -104,146 -156,220zm691 -23c-12,-9 -23,-16 -34,-24 2,-81 4,-161 8,-240 -4,-82 -6,-163 -8,-244 9,-9 18,-17 28,-25 90,1 182,2 273,3 16,3 33,6 50,9 73,25 117,67 127,146 -2,42 -10,75 -37,110 -33,33 -80,51 -125,64 -48,4 -94,8 -141,14 3,62 10,125 17,187 -53,0 -106,0 -158,0zm135 -228c0,-88 2,-175 4,-262 54,7 100,22 131,69 4,9 8,18 12,27 4,25 7,55 -1,79 -18,46 -67,71 -114,82 -11,1 -22,2 -32,5zm370 229c-10,-11 -20,-22 -28,-33 34,-6 65,-18 86,-44 2,-6 4,-11 7,-16 0,-11 0,-21 1,-31 -12,-63 -49,-128 -75,-186 -4,-17 -7,-34 -11,-50 -1,-13 -1,-26 -1,-39 6,-39 18,-67 46,-96 47,-33 106,-50 163,-50 9,10 18,20 26,31 -30,8 -52,15 -76,37 -4,6 -7,13 -11,19 -4,26 0,54 8,79 21,52 41,104 62,157 5,34 14,68 5,102 -7,12 -14,25 -20,38 -9,8 -18,17 -26,25 -28,17 -57,29 -86,41 -24,5 -47,10 -70,16zm-1612 -287c1,-68 2,-136 3,-203 50,4 109,12 142,55 3,10 7,20 12,30 0,10 0,21 1,33 -13,68 -101,81 -158,85zm2 238c1,-67 3,-135 4,-202 65,5 151,15 179,84 21,104 -114,112 -183,118z"/>
    <path class="fil1" d="M1342 4141c-51,-16 -84,-39 -81,-98 11,-55 78,-85 129,-65 33,18 46,32 57,67 0,4 0,8 1,14 -8,59 -50,78 -106,82z"/>
    <path class="fil1" d="M628 3285c-13,-24 -43,-48 -53,-73 -15,-22 -30,-44 -46,-64 -1,-9 -1,-18 -1,-26 9,-6 10,-9 21,-9 8,4 15,9 23,14 0,-26 1,-52 2,-78 -24,-1 -48,-2 -72,-2 -10,-14 -18,-28 -27,-40 197,-2 393,-2 590,-2 -15,-26 -19,-59 -1,-84 7,-6 14,-11 22,-16 6,-2 13,-3 21,-4 46,0 79,21 118,46 8,8 49,31 22,44 -33,-26 -95,-70 -138,-42 -6,5 -11,12 -15,18 -2,13 -3,26 -3,40 489,-1 979,0 1468,1 7,13 16,26 25,40 -21,0 -40,0 -60,1 -1,73 -2,146 -2,218 -14,-9 -29,-19 -42,-28 -2,-63 -2,-126 -2,-189 -20,-1 -41,-1 -62,-1 -1,43 -2,88 -2,133 -3,10 -14,20 -23,29 -8,2 -16,4 -24,6 -28,-3 -60,-15 -78,-40 -6,-10 -13,-18 -19,-27 -1,-34 -1,-67 -1,-100 -20,-1 -40,-1 -59,-1 -1,73 -1,146 -1,219 -15,-10 -31,-20 -45,-30 -1,-15 -1,-29 -1,-43 -39,19 -73,28 -111,-1 -14,-17 -50,-63 -42,-88 18,-3 38,-11 55,-18 8,-15 5,-23 -3,-39 -37,0 -74,0 -110,0 -1,73 -1,146 -1,219 -15,-10 -29,-21 -43,-32 0,-63 0,-125 0,-187 -26,0 -53,0 -79,0 -1,32 -2,65 -2,99 -3,12 -20,26 -28,36 18,21 38,53 62,68 -6,7 -11,13 -16,20 -32,-37 -62,-80 -95,-116 -3,-6 -18,-25 -14,-34 2,-4 4,-7 6,-9 4,-1 8,-1 12,-1 8,2 29,14 33,10 0,-25 0,-49 0,-73 -36,0 -72,0 -107,0 -1,73 -1,146 -1,218 -14,-9 -28,-19 -42,-29 -1,-63 -1,-126 -1,-188 -20,0 -39,0 -58,0 0,73 0,146 0,218 -15,-10 -30,-21 -45,-31 0,-34 0,-67 0,-101 -21,0 -42,0 -61,0 -8,7 -6,23 -7,34 -4,4 -12,3 -17,4 -23,-20 -45,-43 -45,-74 3,-2 5,-4 8,-5 39,-2 79,-1 120,-1 0,-16 1,-30 2,-44 -59,-1 -118,-1 -175,-1 -1,73 -1,146 -1,219 -16,-10 -31,-20 -45,-30 -1,-20 -1,-39 -1,-57 -25,-1 -50,0 -75,0 -1,9 -2,19 -3,29 -26,13 -61,-38 -70,-57 0,-17 9,-15 25,-15 0,-30 0,-60 0,-89 -28,0 -55,0 -82,0 -2,73 -2,146 -2,219 -15,-10 -30,-20 -44,-30 -1,-63 -1,-126 -1,-188 -22,-1 -44,-1 -64,-1 -1,73 -1,146 -1,219 -16,-10 -30,-20 -44,-30 -1,-63 -1,-126 -1,-189 -20,0 -39,0 -58,0 -1,73 -2,146 -2,218 -14,-9 -28,-19 -42,-29 -1,-14 -2,-28 -2,-41 -12,6 -24,13 -36,20 -12,1 -24,4 -36,6 -33,-7 -53,-24 -74,-48 -13,2 -25,4 -37,7 -9,-4 -16,-6 -24,-8 -8,-6 -14,-11 -21,-16 -9,12 -26,23 -32,36 20,23 42,47 64,71 -8,7 -14,13 -21,20zm124 -97c-22,-11 -17,-12 -20,-34 17,-57 72,-43 113,-16 0,3 0,7 0,10 -28,16 -61,36 -93,40zm-112 -49c-7,-1 -14,-2 -20,-3 0,-30 0,-59 0,-87 75,0 150,0 226,0 -1,22 -3,43 -3,65 -14,-13 -28,-25 -41,-37 -45,-8 -80,-5 -108,35 -3,6 -5,13 -6,21 -13,6 -34,5 -48,6zm594 0c0,-29 0,-60 0,-90 25,0 51,0 77,0 0,29 0,60 0,90 -25,0 -51,0 -77,0zm837 36c-21,-11 -22,-16 -12,-36 15,-4 40,-11 51,-22 0,-24 -19,-46 -19,-68 24,0 48,0 73,0 -1,30 -2,61 -2,91 -5,3 -11,8 -16,12 -18,7 -34,14 -50,22 -9,0 -18,0 -25,1zm259 3c-8,-2 -11,-6 -16,-15 0,-38 0,-76 0,-114 19,0 37,0 57,0 -1,32 -1,65 -1,99 -6,25 -17,25 -40,30z"/>
    <path class="fil2" d="M1492 2883c-30,-7 -59,-12 -89,-18 -26,-9 -52,-17 -77,-26 -39,-20 -78,-43 -114,-69 -25,-25 -50,-49 -74,-73 -25,-35 -47,-72 -66,-111 -20,-51 -33,-101 -40,-156 -4,-392 -6,-784 -8,-1176 22,0 45,0 67,0 5,394 10,787 16,1182 7,62 29,113 57,168 19,24 37,48 56,72 36,41 85,71 133,95 17,5 33,12 50,18 19,4 37,9 57,13 30,1 61,3 92,6 50,-6 101,-18 148,-35 55,-25 104,-61 148,-103 10,-15 21,-28 31,-41 11,-19 22,-39 34,-58 21,-46 35,-97 40,-146 4,-390 7,-780 10,-1170 23,0 46,0 69,0 -2,384 -2,769 -2,1154 -10,128 -58,240 -151,332 -13,11 -26,23 -39,35 -17,11 -34,23 -51,35 -78,41 -161,62 -248,71 -16,0 -32,0 -49,1z"/>
    <path class="fil1" d="M1502 2345c-130,-17 -233,-83 -296,-198 -11,-27 -22,-55 -30,-83 -6,-44 -10,-89 -3,-134 14,-88 60,-157 124,-216 30,-21 61,-40 93,-56 19,-7 38,-12 58,-18 46,-7 92,-11 138,-3 81,14 151,58 208,117 7,11 16,22 25,33 32,51 48,102 59,162 0,12 1,24 2,36 -1,17 -2,35 -3,52 -20,135 -113,242 -239,289 -18,4 -36,9 -53,13 -28,1 -56,3 -83,6z"/>
    <path class="fil0" d="M462 3451c-47,-2 -92,-3 -138,-4 0,-2 0,-4 0,-5 -57,-14 -25,-96 30,-83 0,-198 1,-396 3,-594 4,-15 13,-27 25,-39 -3,-4 -4,-9 -5,-12 0,-14 2,-17 10,-27 -27,-27 -3,-59 24,-72 9,-2 19,-4 28,-6 40,0 68,21 68,63 -4,5 -7,11 -9,17 1,4 3,9 5,14 0,19 -13,21 3,36 3,14 6,28 10,44 6,-1 12,0 19,0 8,-148 17,-295 27,-442 -27,-16 -40,-38 -19,-67 -5,-24 -9,-48 -14,-71 -7,-2 -15,-3 -21,-4 0,-41 0,-83 0,-124 -12,-9 -24,-17 -36,-26 -10,-14 -20,-28 -28,-41 -8,-25 -10,-47 -12,-72 -24,0 -44,-10 -55,-32 -1,-4 -1,-8 -1,-13 -25,-12 -27,-22 -27,-49 -21,-15 -21,-21 -24,-47 -30,-19 -54,-46 -69,-79 -5,-15 -9,-30 -13,-45 -21,2 -33,5 -51,15 -43,-44 -50,-95 -50,-152 7,-23 13,-46 20,-69 -7,-18 -13,-37 -20,-54 -2,-22 -3,-44 -4,-64 2,-19 4,-37 8,-55 -48,-3 -96,-6 -144,-8 -1,-45 -2,-89 -2,-133 26,0 53,1 81,2 3,-7 6,-14 9,-20 20,-20 5,-34 8,-58 7,-16 15,-33 23,-48 9,-13 17,-26 26,-39 1,0 2,0 4,0 26,36 80,92 43,139 5,9 10,19 16,28 24,-21 48,-42 73,-63 50,-36 104,-63 164,-75 0,-22 1,-45 2,-67 40,-9 67,10 99,28 12,-12 -3,-19 -9,-32 0,-16 1,-30 6,-45 17,-27 34,-54 53,-80 1,0 2,0 3,0 16,31 33,63 49,94 0,11 0,22 1,33 -4,7 -9,16 -12,25 6,8 12,17 19,27 59,-5 123,-13 177,-40 70,-49 141,-98 213,-146 73,-44 145,-90 223,-128 23,-11 45,-22 69,-32 -23,-28 -6,-45 19,-64 15,-6 31,-13 48,-19 -38,-187 -77,-374 -113,-560 0,-2 0,-4 1,-7 8,-2 17,-3 27,-4 1,10 3,20 5,30 2,0 5,0 7,2 40,-17 77,-18 119,-20 120,12 221,105 343,97 20,-3 43,-16 62,-25 -8,31 -26,56 -49,79 -40,19 -84,33 -130,29 10,20 46,21 65,24 14,-3 28,-6 42,-9 11,-7 27,-20 39,-20 -4,10 -9,20 -13,30 -14,12 -27,24 -40,37 -28,14 -59,28 -90,33 -23,0 -45,0 -67,1 0,7 0,13 1,20 -2,16 -13,30 -22,43 3,7 7,13 11,21 -1,5 -2,11 -2,17 26,15 36,39 47,65 -3,25 -11,36 -29,55 -10,4 -20,6 -24,16 1,0 2,0 3,1 0,16 40,32 48,48 15,5 30,11 46,16 18,13 43,41 20,63 41,20 84,39 126,60 130,69 250,158 372,238 11,6 22,11 33,17 49,13 105,32 156,28 6,-9 11,-18 17,-26 -20,-35 -11,-58 5,-94 11,-21 22,-40 34,-60 23,34 66,79 61,124 -5,9 -10,18 -15,27 1,3 4,6 6,9 12,-8 24,-15 37,-23 10,-3 20,-6 31,-8 10,0 21,1 32,2 0,21 0,44 1,67 21,4 41,10 63,15 29,17 60,33 90,49 28,23 58,46 84,72 4,0 17,-23 17,-29 -4,-9 -9,-18 -12,-25 0,-20 7,-37 13,-56 14,-19 30,-39 45,-57 18,28 37,57 51,89 0,7 0,15 0,24 -1,6 -2,13 -3,20 6,10 14,21 21,32 28,-1 55,-1 82,-1 -2,43 -3,87 -4,131 -18,0 -133,0 -145,12 12,44 12,90 0,134 -5,13 -10,27 -14,41 6,21 13,42 19,63 0,22 0,46 -3,67 -5,15 -11,29 -15,44 -10,14 -20,28 -28,43 -23,-12 -31,-14 -57,-14 -3,13 -5,27 -7,41 -14,35 -43,63 -72,83 0,23 -6,33 -22,49 0,11 -1,21 -6,32 -7,4 -12,9 -18,14 -5,18 -18,38 -37,45 -7,-1 -15,0 -21,1 -4,44 -14,80 -43,115 -11,7 -21,15 -30,23 -1,42 -3,85 -3,128 -7,0 -14,0 -20,1 -7,23 -12,46 -17,70 17,27 16,53 -16,68 9,147 19,294 28,441 6,0 12,0 19,1 2,-20 3,-39 18,-54 -2,-3 -4,-7 -5,-10 0,-12 0,-16 4,-28 -22,-42 6,-75 49,-83 9,2 18,3 27,4 32,5 49,30 45,63 -3,4 -7,8 -9,14 2,4 6,9 9,13 -2,8 -4,16 -5,25 13,6 22,25 26,38 0,102 0,204 1,307 -1,0 -2,3 -3,5 1,0 2,0 4,1 1,92 2,186 3,279 41,4 55,11 60,54 -4,12 -12,21 -20,31 -17,2 -33,4 -50,7 -748,1 -1494,3 -2241,5zm2085 -2220c0,-23 25,-53 36,-72 7,-10 16,-20 25,-30 0,-28 1,-56 2,-83 48,0 97,32 136,54 20,15 55,42 66,64 -91,13 -178,38 -265,67zm-1136 -800c-12,-58 -24,-116 -35,-173 25,0 50,-1 75,3 -4,7 -9,15 -13,24 -1,8 -1,18 -1,28 2,7 4,13 7,21 4,6 9,13 15,20 -10,10 -13,21 -11,37 -17,11 -25,25 -37,40zm-1013 2317c-1,-2 -1,-5 -1,-6 6,-7 13,-15 20,-21 -4,-9 -9,-12 -7,-24 1,-4 3,-7 5,-10 -4,-5 -7,-9 -11,-13 -3,-32 24,-38 50,-37 13,5 31,17 25,35 -4,5 -7,11 -10,16 1,2 3,4 5,7 0,4 0,9 1,15 -4,5 -9,11 -13,16 5,7 11,13 17,20 -27,0 -54,1 -81,2zm-12 38c0,-7 0,-12 1,-17 33,-1 66,0 100,0 1,4 2,9 3,15 -34,0 -69,1 -104,2zm2201 -40c2,-7 5,-12 9,-18 2,-3 5,-6 8,-9 -5,0 -12,-9 -15,-12 0,-12 1,-16 9,-23 -11,-11 -19,-20 -11,-36 12,-12 22,-12 38,-15 22,4 37,15 35,40 -4,4 -10,9 -10,16 10,7 1,21 -2,28 6,9 14,18 22,28 -29,0 -56,0 -83,1zm37 38c-16,-2 -33,-3 -49,-3 0,-5 0,-10 1,-15 34,0 69,1 103,3 0,4 0,8 0,14 -18,-1 -37,0 -55,1zm-2128 638c-52,-2 -104,-2 -155,-2 -14,-5 -17,-9 -17,-23 2,-4 5,-7 9,-9 801,-1 1602,-2 2403,-2 8,7 8,17 2,26 -9,1 -17,3 -26,5 -739,1 -1478,3 -2216,5zm1957 -2467c-18,-11 -22,-27 -14,-50 6,-13 11,-26 18,-38 1,0 3,0 5,0 11,18 18,35 25,55 -3,24 -10,30 -34,33zm-2 48c-5,-2 -11,-3 -15,-4 0,-10 2,-15 10,-21 14,0 56,-4 39,22 -12,1 -23,2 -34,3zm450 105c-23,-12 -25,-25 -12,-53 6,-8 11,-16 18,-23 2,2 5,5 8,8 16,32 31,59 -14,68zm-17 46c-1,-2 -2,-4 -2,-6 3,-6 6,-10 10,-14 15,-1 29,-2 43,-2 5,5 10,10 12,18 -22,1 -43,2 -63,4zm-358 146c-1,-2 -2,-3 -2,-4 2,-10 4,-20 6,-30 150,-62 304,-83 465,-94 -14,8 -29,17 -42,27 -34,3 -68,7 -102,12 -46,8 -93,17 -139,26 -27,7 -53,14 -79,22 -36,13 -72,27 -107,41zm-5 68c0,-12 0,-23 0,-35 20,-10 41,-20 62,-30 59,-20 120,-37 181,-52 29,-5 59,-11 88,-16 38,-6 76,-11 115,-15 15,-10 48,-40 67,-40 -1,24 -3,48 -3,72 -58,6 -116,11 -173,18 -115,18 -232,46 -337,98zm-1085 -825c-5,-5 -7,-24 -7,-32 8,2 16,5 23,8 0,11 -5,21 -16,24zm-67 -326c-11,-51 -23,-104 -31,-155 16,-11 36,34 41,45 6,31 19,87 -10,110zm268 44c-12,-2 -24,-4 -36,-7 -5,-7 -11,-14 -16,-20 -1,-7 -7,-25 -13,-29 1,-13 3,-26 5,-39 -5,-36 -33,-66 -50,-96 -17,0 -44,69 -51,90 0,15 0,31 3,47 -3,4 -6,8 -8,12 -1,5 -1,10 -1,16 -22,-3 -44,-7 -66,-10 8,-37 17,-72 9,-110 -6,-23 -18,-45 -28,-67 13,-13 81,-4 100,-3 23,5 48,11 69,20 61,31 131,65 199,74 14,-1 30,-2 45,-3 -48,39 -113,25 -170,16 0,28 22,47 39,67 13,5 28,10 42,17 10,1 19,2 29,4 -17,18 -81,20 -101,21zm-115 -67c-21,-10 -19,-18 -19,-39 7,-10 13,-20 20,-30 6,0 20,21 23,25 8,26 0,38 -24,44zm-5 43c-10,-5 -18,-8 -16,-22 14,-4 28,-4 44,-5 2,2 4,4 7,6 0,22 -17,19 -35,21zm5 109c-20,-4 -34,-16 -47,-29 -11,-34 4,-50 34,-62 14,0 29,0 44,2 25,16 25,21 30,47 -3,16 -20,30 -34,36 -10,1 -18,4 -27,6zm1 43c-14,0 -28,-4 -41,-8 0,-4 0,-7 0,-10 2,-3 4,-5 6,-6 26,0 52,0 80,0 14,30 -34,13 -45,24zm-2 113c-37,-5 -107,-18 -76,-70 29,-30 90,-25 128,-20 21,6 32,13 42,33 0,4 0,9 1,15 -17,36 -59,38 -95,42zm-61 62c9,-13 18,-26 28,-38 25,-1 50,-1 76,-1 9,12 18,24 27,37 -44,0 -88,1 -131,2zm-86 81c-11,-11 -15,-13 -7,-26 92,-42 215,-43 308,-6 11,6 16,13 14,26 -13,13 -74,-6 -90,-8 -47,-2 -93,-2 -139,-2 -29,5 -58,10 -86,16zm-483 317c-1,-1 -2,-2 -2,-2 31,-22 62,-44 94,-65 44,-32 90,-62 136,-93 40,-24 81,-48 122,-70 53,-26 107,-48 162,-65 16,-3 32,-6 48,-8 56,-4 115,-6 171,3 54,12 107,28 159,51 8,4 18,9 28,13 53,31 106,63 161,95 66,45 132,91 198,137 -19,-4 -37,-6 -56,-8 -116,-30 -234,-68 -351,-96 -85,-13 -170,-21 -255,-22 -53,4 -104,8 -155,13 -155,26 -304,89 -460,117zm-293 150c-40,-6 -79,-10 -119,-14 -2,-42 -3,-83 -4,-123 41,6 48,18 73,51 31,1 63,2 96,3 188,-11 371,-65 551,-120 27,-8 54,-14 81,-21 33,-6 65,-12 99,-17 33,-5 65,-8 98,-11 39,0 78,0 118,1 89,6 179,25 266,45 89,25 179,51 269,77 45,8 89,18 134,28 84,10 166,21 250,11 18,-27 37,-52 73,-49 -1,39 -3,79 -4,119 -17,4 -34,7 -52,10 -127,12 -254,1 -381,-16 -33,-7 -65,-13 -97,-20 -116,-29 -233,-58 -351,-78 -32,-3 -62,-7 -93,-9 -42,-1 -84,-2 -126,-2 -35,2 -71,6 -106,9 -166,25 -328,79 -495,106 -49,6 -96,11 -144,17 -46,1 -92,2 -136,3zm0 -153c-46,-11 -21,-63 -2,-89 1,-1 2,0 4,0 10,25 44,79 -2,89zm-13 47c-6,-4 -11,-6 -17,-8 0,-3 0,-5 0,-7 2,-3 4,-6 7,-8 13,0 26,-4 39,0 2,4 9,14 7,19 -12,1 -24,2 -36,4zm-426 153c-15,-2 -31,-4 -45,-5 -1,-2 -1,-3 -1,-4 2,-4 6,-9 9,-12 15,0 30,0 45,1 4,5 7,11 10,18 -6,0 -13,1 -18,2zm-11 -47c-38,-15 -15,-50 2,-74 1,0 2,0 4,0 13,21 38,53 9,72 -5,0 -11,1 -15,2zm359 123c-35,-12 -70,-24 -104,-36 -52,-11 -104,-22 -156,-33 14,-15 28,-30 43,-44 18,-13 36,-25 55,-37 19,-10 39,-19 59,-28 15,-3 30,-5 45,-7 0,26 0,53 1,80 8,10 16,20 25,31 8,13 38,55 38,73 -2,0 -4,0 -6,1zm20 67c-33,-13 -66,-26 -99,-39 -62,-16 -126,-32 -189,-43 -44,-6 -88,-11 -131,-16 -14,-9 -29,-18 -43,-27 146,0 298,33 435,80 9,3 17,7 27,12 2,10 5,21 8,32 -3,0 -6,0 -8,1zm11 70c-16,-8 -32,-16 -48,-23 -54,-21 -112,-36 -167,-52 -28,-7 -57,-12 -85,-18 -69,-9 -140,-17 -210,-21 -1,-24 -1,-48 -1,-72 17,0 51,29 65,38 31,7 67,10 98,13 114,17 249,40 349,100 0,6 2,31 -1,35zm896 1989c-350,-1 -699,-2 -1048,-3 0,-183 0,-365 1,-546 57,0 113,0 171,0 10,-153 20,-306 31,-458 0,-12 0,-24 0,-34 -16,-6 -33,-12 -24,-33 3,-2 5,-4 8,-6 0,-31 -14,-71 -22,-103 -5,0 -11,0 -15,0 0,-41 0,-81 0,-121 -66,-22 -85,-95 -70,-158 -20,4 -53,18 -62,-10 0,-5 2,-11 3,-15 -10,-3 -18,-10 -25,-18 0,-9 1,-19 2,-28 -13,-5 -24,-8 -30,-22 1,-10 3,-20 5,-29 -38,-21 -61,-38 -80,-77 -1,-19 -2,-36 -2,-53 -13,-4 -26,-6 -39,-8 -14,2 -27,4 -40,8 -17,-36 -26,-68 -23,-108 7,-25 14,-49 22,-73 -30,-45 -39,-114 -19,-164 1,-1 3,-2 5,-3 131,15 268,57 385,119 0,-18 0,-36 2,-55 0,-29 -8,-60 -12,-88 -13,-50 -41,-98 -70,-139 0,-2 0,-4 1,-6 60,3 121,5 182,8 91,-3 182,-14 273,-29 106,-26 213,-52 320,-79 71,-9 143,-20 214,-27 122,0 244,11 362,37 82,20 163,40 246,61 32,5 63,11 96,18 53,4 106,9 159,15 42,0 83,0 125,0 32,-2 73,-10 105,-5 -18,28 -36,56 -50,85 -7,17 -13,35 -19,52 -7,49 -18,100 -6,149 109,-68 253,-100 378,-120 10,0 13,17 15,25 6,43 1,102 -25,139 0,23 14,51 21,72 0,15 0,29 1,43 -4,25 -14,48 -24,71 -10,-4 -20,-7 -28,-9 -19,0 -34,2 -50,7 0,25 0,50 -11,73 -7,8 -13,17 -20,25 -17,12 -35,26 -53,35 2,8 4,15 8,23 -9,17 -13,21 -31,27 1,9 2,18 3,26 -8,9 -15,14 -24,19 0,17 3,20 -14,32 -15,1 -32,-2 -46,-8 11,54 3,96 -33,138 -11,8 -23,16 -36,20 0,40 0,81 0,122 -5,0 -11,1 -16,2 -8,32 -15,63 -22,95 0,15 15,16 9,36 -9,3 -16,6 -24,9 11,164 22,329 33,494 56,-1 114,-1 171,-1 1,181 2,363 4,544 -417,2 -833,5 -1248,7z"/>
    <path class="fil3" d="M3134 875c-33,0 -61,11 -83,34 -23,22 -35,53 -35,84 0,31 12,60 34,83 22,22 52,35 84,35 30,0 60,-12 83,-34 23,-22 35,-51 35,-84 0,-32 -12,-61 -34,-83 -23,-23 -52,-35 -84,-35zm0 17c28,0 52,11 72,30 19,20 29,44 29,73 0,26 -11,51 -30,69 -20,19 -45,30 -73,30 -25,0 -50,-11 -70,-31 -19,-19 -29,-44 -29,-70 0,-27 11,-52 31,-72 19,-19 42,-29 70,-29zm-49 33l0 132 29 0 0 -55 20 0 27 55 31 0 -29 -60c19,-4 29,-17 29,-36 0,-24 -18,-36 -56,-36l-51 0zm29 17l17 0c22,0 32,7 32,22 0,14 -10,20 -30,20l-19 0 0 -42z"/>
   </g>
   <g>
    <path class="fil4" d="M10401 2862c97,75 230,106 403,106 348,0 567,-205 567,-507 0,-124 -39,-221 -120,-305 -65,-68 -185,-115 -329,-189 -160,-84 -246,-138 -246,-262 0,-117 88,-199 221,-199 140,0 257,82 302,217l25 0c18,-75 43,-158 74,-248 -106,-72 -223,-106 -360,-106 -330,0 -531,196 -531,460 0,250 149,350 420,494 162,88 259,142 259,275 0,136 -97,228 -252,228 -167,0 -289,-99 -330,-275l-29 0c-22,115 -47,219 -74,311zm1398 77c43,-7 84,-11 127,-11 42,0 85,4 126,11 70,-239 144,-482 225,-732 86,268 161,511 222,732 42,-7 83,-11 124,-11 40,0 83,4 124,11 110,-367 232,-727 365,-1078 -29,6 -58,9 -85,9 -30,0 -59,-3 -88,-9 -66,227 -143,481 -228,761 -86,-284 -158,-536 -219,-761 -43,6 -86,9 -129,9 -45,0 -88,-3 -131,-9 -63,243 -137,495 -223,761 -63,-214 -135,-467 -219,-761 -54,6 -110,9 -164,9 -57,0 -111,-3 -165,-9 117,351 232,709 338,1078zm1976 -593l0 261c0,140 -58,210 -155,210 -93,0 -140,-65 -140,-194 0,-158 90,-237 295,-277zm10 451c24,108 97,162 203,162 70,0 155,-16 236,-49l0 -57 -6 0c-133,0 -149,-56 -149,-216l0 -43 7 -393 0 -11c0,-232 -149,-361 -420,-361 -142,0 -271,56 -402,171 21,52 37,102 50,145 70,-117 151,-174 253,-174 128,0 214,86 214,223 0,12 0,25 -2,39 -91,61 -217,85 -357,133 -160,54 -237,142 -237,286 0,194 116,314 305,314 133,0 241,-61 305,-169zm591 142c56,-7 110,-11 164,-11 57,0 111,4 163,11 -5,-77 -9,-147 -9,-205l0 -357c0,-232 34,-354 182,-354 174,0 181,144 181,447 0,121 -5,277 -18,469 56,-7 110,-11 167,-11 56,0 113,4 169,11 -5,-77 -9,-147 -9,-205l0 -357c0,-234 36,-354 185,-354 162,0 180,133 180,408 0,147 -6,314 -20,508 54,-7 108,-11 165,-11 56,0 113,4 171,11 -7,-133 -11,-271 -11,-411l0 -140c0,-207 -2,-349 -84,-444 -61,-70 -148,-108 -259,-108 -156,0 -271,67 -359,210 -52,-138 -162,-210 -313,-210 -147,0 -246,63 -332,173l0 -148c-50,6 -101,9 -155,9 -52,0 -104,-3 -158,-9 9,241 13,418 13,538 0,114 -4,296 -13,540zm1962 -1484c0,94 75,169 169,169 95,0 172,-75 172,-169 0,-95 -75,-172 -169,-172 -97,0 -172,77 -172,172zm0 1484c57,-7 113,-11 169,-11 59,0 115,4 170,11 -12,-183 -18,-361 -18,-537 0,-194 6,-374 18,-541 -55,6 -111,9 -170,9 -56,0 -112,-3 -169,-9 11,167 18,347 18,541 0,174 -7,352 -18,537zm621 0c54,-7 108,-11 164,-11 54,0 111,4 165,11 -11,-235 -16,-415 -16,-542 0,-250 45,-372 192,-372 165,0 180,122 180,388 0,228 -6,404 -18,526 57,-7 111,-11 167,-11 57,0 113,4 169,11 -11,-124 -15,-250 -15,-381 0,-127 2,-221 2,-282 0,-145 -2,-251 -70,-330 -61,-70 -153,-110 -266,-110 -142,0 -255,58 -348,180l0 -155c-49,6 -99,9 -151,9 -52,0 -104,-3 -155,-9 11,166 18,346 18,540 0,175 -7,353 -18,538zm1822 -593l0 261c0,140 -58,210 -155,210 -93,0 -140,-65 -140,-194 0,-158 90,-237 295,-277zm9 451c25,108 97,162 203,162 70,0 156,-16 237,-49l0 -57 -7 0c-133,0 -148,-56 -148,-216l0 -43 6 -393 0 -11c0,-232 -149,-361 -419,-361 -142,0 -271,56 -402,171 21,52 36,102 50,145 70,-117 151,-174 253,-174 128,0 214,86 214,223 0,12 0,25 -2,39 -91,61 -217,85 -357,133 -160,54 -237,142 -237,286 0,194 115,314 305,314 133,0 241,-61 304,-169zm591 142c57,-7 111,-11 167,-11 57,0 113,4 167,11 -11,-126 -20,-291 -20,-490 0,-216 59,-320 212,-320 43,0 92,14 147,34 -9,-57 -14,-113 -14,-169 0,-54 5,-109 14,-163l-12 0c-173,0 -293,109 -347,316l-11 0c0,-73 4,-170 11,-286 -52,6 -104,9 -156,9 -54,0 -106,-3 -158,-9 14,150 16,328 16,538 0,199 -4,380 -16,540zm1399 -593l0 261c0,140 -59,210 -156,210 -92,0 -140,-65 -140,-194 0,-158 91,-237 296,-277zm9 451c25,108 97,162 203,162 70,0 156,-16 237,-49l0 -57 -7 0c-133,0 -149,-56 -149,-216l0 -43 7 -393 0 -11c0,-232 -149,-361 -420,-361 -142,0 -270,56 -401,171 20,52 36,102 50,145 69,-117 151,-174 252,-174 129,0 214,86 214,223 0,12 0,25 -2,39 -90,61 -216,85 -356,133 -160,54 -237,142 -237,286 0,194 115,314 304,314 134,0 242,-61 305,-169zm756 487c-50,104 -97,194 -147,271 38,-5 72,-7 106,-7 34,0 66,2 95,7 212,-536 451,-1102 719,-1694 -29,6 -60,9 -92,9 -29,0 -61,-3 -92,-9l-262 696c-102,-237 -192,-469 -269,-696 -58,6 -117,9 -176,9 -58,0 -117,-3 -176,-9l461 1079 -167 344zm1455 -938l0 261c0,140 -59,210 -156,210 -92,0 -140,-65 -140,-194 0,-158 90,-237 296,-277zm9 451c25,108 97,162 203,162 70,0 155,-16 237,-49l0 -57 -7 0c-133,0 -149,-56 -149,-216l0 -43 7 -393 0 -11c0,-232 -149,-361 -420,-361 -142,0 -270,56 -401,171 20,52 36,102 49,145 70,-117 151,-174 253,-174 129,0 214,86 214,223 0,12 0,25 -2,39 -90,61 -217,85 -356,133 -161,54 -237,142 -237,286 0,194 115,314 304,314 133,0 242,-61 305,-169zm591 142c54,-7 108,-11 165,-11 54,0 110,4 164,11 -11,-235 -16,-415 -16,-542 0,-250 45,-372 192,-372 165,0 181,122 181,388 0,228 -7,404 -18,526 56,-7 110,-11 166,-11 57,0 113,4 170,11 -12,-124 -16,-250 -16,-381 0,-127 2,-221 2,-282 0,-145 -2,-251 -70,-330 -61,-70 -153,-110 -266,-110 -142,0 -255,58 -347,180l0 -155c-50,6 -100,9 -152,9 -51,0 -103,-3 -155,-9 11,166 18,346 18,540 0,175 -7,353 -18,538zm1847 -77c97,75 231,106 404,106 348,0 567,-205 567,-507 0,-124 -39,-221 -120,-305 -65,-68 -185,-115 -329,-189 -161,-84 -246,-138 -246,-262 0,-117 88,-199 221,-199 140,0 257,82 302,217l25 0c18,-75 43,-158 74,-248 -106,-72 -223,-106 -361,-106 -329,0 -530,196 -530,460 0,250 149,350 420,494 162,88 259,142 259,275 0,136 -97,228 -252,228 -167,0 -289,-99 -330,-275l-29 0c-23,115 -48,219 -75,311zm1733 -516l0 261c0,140 -59,210 -156,210 -92,0 -139,-65 -139,-194 0,-158 90,-237 295,-277zm9 451c25,108 97,162 203,162 70,0 156,-16 237,-49l0 -57 -7 0c-133,0 -149,-56 -149,-216l0 -43 7 -393 0 -11c0,-232 -149,-361 -420,-361 -142,0 -270,56 -401,171 20,52 36,102 50,145 69,-117 151,-174 252,-174 129,0 215,86 215,223 0,12 0,25 -3,39 -90,61 -216,85 -356,133 -160,54 -237,142 -237,286 0,194 115,314 305,314 133,0 241,-61 304,-169zm591 142c54,-7 108,-11 165,-11 54,0 110,4 164,11 -11,-235 -15,-415 -15,-542 0,-250 45,-372 191,-372 165,0 181,122 181,388 0,228 -7,404 -18,526 56,-7 110,-11 167,-11 56,0 112,4 169,11 -11,-124 -16,-250 -16,-381 0,-127 2,-221 2,-282 0,-145 -2,-251 -70,-330 -60,-70 -153,-110 -266,-110 -142,0 -255,58 -347,180l0 -155c-50,6 -99,9 -151,9 -52,0 -104,-3 -156,-9 11,166 18,346 18,540 0,175 -7,353 -18,538zm1286 -309c-14,122 -23,205 -29,250 94,63 203,88 336,88 259,0 428,-158 428,-383 0,-201 -131,-253 -367,-345 -127,-50 -192,-79 -192,-167 0,-79 65,-140 162,-140 113,0 201,70 266,207l23 0c14,-76 36,-146 65,-212 -101,-63 -207,-95 -324,-95 -255,0 -413,152 -413,368 0,158 90,233 273,309 167,70 264,99 264,201 0,95 -61,151 -170,151 -133,0 -241,-83 -290,-232l-32 0zm1015 -641l0 120c0,302 -7,489 -7,559 0,194 104,298 296,298 83,0 167,-23 259,-63l0 -84c-52,14 -95,23 -131,23 -119,0 -124,-104 -124,-379l0 -90c0,-113 5,-240 9,-384 97,0 172,0 224,2 -3,-20 -5,-38 -5,-58 0,-18 2,-39 5,-59 -75,7 -147,9 -219,9l0 -70c0,-61 4,-176 13,-347l-24 -18c-86,43 -188,88 -305,131 7,65 11,137 11,216 0,29 0,59 -2,88l-25 0c-38,0 -81,-4 -128,-9 4,20 6,41 6,59 0,20 -2,38 -6,58 40,-2 76,-2 112,-2l41 0zm693 950c54,-7 108,-11 164,-11 54,0 111,4 165,11 -11,-235 -16,-415 -16,-542 0,-250 45,-372 192,-372 165,0 180,122 180,388 0,228 -6,404 -18,526 57,-7 111,-11 167,-11 54,0 111,4 167,11 -11,-124 -13,-250 -13,-381 0,-127 2,-221 2,-282 0,-145 -5,-251 -72,-330 -61,-70 -151,-110 -264,-110 -149,0 -266,63 -348,187l0 -350c0,-155 7,-297 23,-426 -54,11 -108,18 -165,18 -54,0 -108,-7 -164,-18 15,235 18,530 18,889 0,343 -3,609 -18,803zm1820 -593l0 261c0,140 -59,210 -156,210 -92,0 -139,-65 -139,-194 0,-158 90,-237 295,-277zm9 451c25,108 97,162 203,162 70,0 156,-16 237,-49l0 -57 -7 0c-133,0 -149,-56 -149,-216l0 -43 7 -393 0 -11c0,-232 -149,-361 -420,-361 -142,0 -270,56 -401,171 20,52 36,102 50,145 69,-117 151,-174 252,-174 129,0 215,86 215,223 0,12 0,25 -3,39 -90,61 -216,85 -356,133 -160,54 -237,142 -237,286 0,194 115,314 305,314 133,0 241,-61 304,-169z"/>
    <g>
     <path class="fil0" d="M4141 2873c-24,-20 -59,-47 -68,-77 6,-238 12,-476 21,-715 -9,-196 -18,-390 -27,-583 23,-27 47,-51 71,-74 256,0 512,2 768,5 200,18 438,90 498,301 -3,30 -3,60 -3,92 -39,164 -197,230 -349,268 0,0 0,3 0,6 134,24 271,78 367,173 15,24 29,51 47,77 6,24 12,51 21,78 0,30 0,60 3,89 -33,268 -324,313 -545,355 -268,-1 -536,3 -804,5zm1528 66c-48,-69 -95,-134 -143,-199 223,-313 447,-626 673,-935 -51,-66 -98,-132 -146,-194 77,-57 375,-265 408,-250 146,223 295,450 443,676 156,211 313,423 471,637 -143,86 -283,173 -423,262 -202,-306 -402,-613 -601,-920 -87,107 -173,214 -256,322 -143,199 -286,399 -426,601zm1891 -63c-33,-23 -63,-44 -92,-65 6,-221 11,-441 20,-658 -9,-223 -15,-447 -20,-667 23,-24 50,-48 77,-69 247,3 497,7 747,9 45,6 90,15 137,24 200,69 322,182 349,399 -6,116 -27,206 -102,301 -92,92 -220,140 -342,176 -131,12 -259,23 -387,38 9,170 27,343 47,513 -145,-1 -291,0 -434,-1zm369 -625c3,-241 6,-479 12,-717 149,20 274,62 360,190 9,24 21,48 33,75 9,68 18,148 -3,214 -51,128 -185,196 -313,226 -30,3 -59,6 -89,12zm1015 628c-26,-29 -53,-59 -77,-89 92,-18 179,-50 235,-122 6,-15 12,-30 21,-45 0,-30 0,-56 3,-83 -33,-173 -134,-351 -205,-509 -12,-48 -21,-93 -30,-137 -3,-36 -3,-72 -3,-107 15,-108 47,-185 125,-262 128,-93 289,-137 447,-137 23,26 47,53 71,83 -83,24 -143,42 -208,101 -12,18 -21,36 -30,54 -12,71 0,146 21,214 56,143 113,286 169,432 15,92 39,185 15,280 -21,32 -38,68 -56,104 -24,21 -48,45 -72,68 -74,45 -155,78 -235,111 -66,15 -128,30 -191,44zm-4416 -786c3,-187 6,-372 9,-556 137,11 298,32 387,152 9,26 21,53 33,80 0,29 0,59 3,92 -36,185 -277,220 -432,232zm6 653c3,-185 6,-370 9,-554 179,14 414,41 491,229 57,285 -312,307 -500,325z"/>
     <path class="fil1" d="M6285 2856c-140,-45 -232,-108 -223,-268 30,-153 214,-236 354,-179 89,48 125,86 155,182 0,12 0,24 3,39 -21,163 -137,214 -289,226z"/>
    </g>
   </g>
  </g>
 </g>
</svg>
